<?xml version="1.0" encoding="UTF-8"?>
<svg xmlns="http://www.w3.org/2000/svg" xmlns:xlink="http://www.w3.org/1999/xlink" viewBox="0 0 32 32" width="32px" height="32px">
<g id="surface45024070">
<path style=" stroke:none;fill-rule:nonzero;fill:rgb(100%,100%,100%);fill-opacity:1;" d="M 10.667969 4 C 6.992188 4 4 6.992188 4 10.667969 L 4 21.332031 C 4 25.007812 6.992188 28 10.667969 28 L 21.332031 28 C 25.007812 28 28 25.007812 28 21.332031 L 28 10.667969 C 28 6.992188 25.007812 4 21.332031 4 Z M 10.667969 6.667969 L 21.332031 6.667969 C 23.539062 6.667969 25.332031 8.460938 25.332031 10.667969 L 25.332031 21.332031 C 25.332031 23.539062 23.539062 25.332031 21.332031 25.332031 L 10.667969 25.332031 C 8.460938 25.332031 6.667969 23.539062 6.667969 21.332031 L 6.667969 10.667969 C 6.667969 8.460938 8.460938 6.667969 10.667969 6.667969 Z M 22.667969 8 C 21.929688 8 21.332031 8.597656 21.332031 9.332031 C 21.332031 10.070312 21.929688 10.667969 22.667969 10.667969 C 23.402344 10.667969 24 10.070312 24 9.332031 C 24 8.597656 23.402344 8 22.667969 8 Z M 16 9.332031 C 12.324219 9.332031 9.332031 12.324219 9.332031 16 C 9.332031 19.675781 12.324219 22.667969 16 22.667969 C 19.675781 22.667969 22.667969 19.675781 22.667969 16 C 22.667969 12.324219 19.675781 9.332031 16 9.332031 Z M 16 12 C 18.207031 12 20 13.792969 20 16 C 20 18.207031 18.207031 20 16 20 C 13.792969 20 12 18.207031 12 16 C 12 13.792969 13.792969 12 16 12 Z M 16 12 "/>
</g>
</svg>
